<svg width="38" height="38" viewBox="0 0 38 38" fill="none" xmlns="http://www.w3.org/2000/svg">
    <path fill-rule="evenodd" clip-rule="evenodd" d="M13.7272 27.5189C16.903 27.5189 19.9073 26.4181 22.3152 24.4052L23.5553 25.6454L23.1431 26.0577C22.9266 26.2741 22.8057 26.5666 22.8057 26.8718C22.8057 27.1769 22.9266 27.4706 23.1431 27.6859L32.6512 37.1928C32.8757 37.4174 33.1705 37.5302 33.4653 37.5302C33.7601 37.5302 34.0549 37.4174 34.2794 37.1928L36.822 34.6503C37.0384 34.4338 37.1593 34.1413 37.1593 33.8362C37.1593 33.531 37.0384 33.2374 36.822 33.022L27.3139 23.5151C26.8636 23.0649 26.1359 23.0649 25.6856 23.5151L25.1836 24.0172L23.948 22.7816C26.0127 20.3588 27.1458 17.32 27.1458 14.1026C27.1458 10.5191 25.7501 7.14979 23.2156 4.6153C20.6812 2.08082 17.3118 0.685181 13.7283 0.685181C10.1448 0.685181 6.77547 2.08082 4.24213 4.6153C1.70765 7.14979 0.312012 10.518 0.312012 14.1026C0.312012 17.6861 1.70765 21.0555 4.24213 23.5888C6.77431 26.1245 10.1436 27.5189 13.7272 27.5189ZM34.3784 33.8373L33.4641 34.7505L25.5843 26.8718L26.4986 25.9586L34.3784 33.8373ZM13.7272 2.98936C10.7586 2.98936 7.96844 4.14548 5.86922 6.2447C3.76886 8.34391 2.61389 11.134 2.61389 14.1038C2.61389 17.0712 3.77001 19.8625 5.86922 21.9617C7.96844 24.0609 10.7586 25.2171 13.7272 25.2171C16.6958 25.2171 19.487 24.0609 21.5863 21.9617C23.6855 19.8625 24.8416 17.0724 24.8416 14.1038C24.8416 11.1352 23.6855 8.34391 21.5863 6.2447C19.487 4.14548 16.6958 2.98936 13.7272 2.98936Z" fill="white"/>
</svg>
